<svg xmlns="http://www.w3.org/2000/svg" width="500" height="500" viewBox="0 0 499.99995 500.00001"><title>User Avatar</title><path fill="#56626b" d="M0 0h500v500H0z"/><path d="M294.228 342.83c-5.624 11.925-17.99 23.173-43.148 23.208-24.936-.034-37.303-11.283-42.928-22.983v35.38c0 3.38.675 6.309 1.351 9.238 2.028 6.76 5.86 12.167 11.043 16.223 8.112 6.534 19.377 9.915 30.644 9.915s22.533-3.38 30.645-9.915c5.183-4.056 9.014-9.463 11.042-16.223.676-2.253 1.126-4.734 1.351-7.437a2.166 2.166 0 0 0-.22-.044c.012-.649.22-1.096.22-1.756v-35.604z" fill="#f9dfa9"/><path d="M314.962 42.458c-4.732 45.067-75.261-.673-127.539 23.889-13.07 6.084-29.97 20.953-39.433 37.853-16.9 30.42-4.058 89.659-4.058 89.659l.133.033c-4.151 4.301-6.444 12.121-6.444 22.073 0 19.604 9.69 43.715 22.309 43.715.83 0 1.661-.02 2.49-.194 8.79 26.352 23.207 50.902 41.001 67.57v-.225c0 .902.225 2.026.225 2.927.676 4.056 1.804 8.564 4.057 13.296.14.28.302.557.45.836v34.544c0 3.38.674 6.308 1.35 9.238 2.028 6.76 5.86 12.166 11.043 16.222 8.112 6.535 19.378 9.916 30.644 9.916 11.267 0 22.533-3.381 30.645-9.916 5.183-4.056 9.014-9.462 11.042-16.222.676-2.254 1.126-4.734 1.351-7.438a2.166 2.166 0 0 0-.22-.043c.012-.65.22-1.097.22-1.756V342.83c2.254-4.506 3.382-9.015 4.058-13.07.225-.902.225-2.026.225-2.928.03-.348.036-.691.057-1.038-.016.495-.024.988-.057 1.487 17.8-16.674 32.357-41.658 41.145-68.023l.103.028c.822.17 1.644.17 2.467.17 12.619 0 22.31-24.337 22.31-43.715 0-10.591-3.17-17.575-7.677-21.856h.014c1.352-4.957 14.198-56.56-.45-86.305-14.195-28.392-41.462-65.123-41.462-65.123z" fill="#ffe8b9"/><path d="M314.962 42.458c-2.915 27.754-30.804 21.078-63.996 17.582v353.762c.075 0 .15-48.664.224-48.664 16.32 5.112 23.323 11.744 43.038 15.098a2.166 2.166 0 0 0-.22-.044c.012-.649.22-1.096.22-1.756v-35.604c2.254-4.507 3.382-9.015 4.058-13.071.225-.902.224-2.026.224-2.927.03-.348.037-.692.058-1.039-.016.495-.024.988-.058 1.488 17.802-16.675 32.358-41.659 41.146-68.023l.101.027c.823.173 1.646.173 2.47.173 12.618 0 22.308-24.337 22.308-43.716 0-10.59-3.169-17.574-7.675-21.856h.013c1.352-4.957 14.198-56.56-.448-86.305-14.197-28.392-41.463-65.122-41.463-65.122z" fill="#eace95"/><path d="M314.882 41.336a1.127 1.127 0 0 0-1.043 1.008c-1.15 10.957-6.006 15.99-13.775 18.326-7.768 2.335-18.57 1.666-30.922.303-24.702-2.726-55.64-8.125-82.199 4.353-13.369 6.224-30.334 21.173-39.94 38.324-8.66 15.589-9.61 38.209-8.507 56.977 1.104 18.768 4.912 34.008 4.912 34.008 2.673-2.36 6.446-3.701 10.017-4.314.103.113.475.516.84 1.474.41 1.073.805 2.58 1.162 4.34.715 3.52 1.287 8.07 1.721 12.556.87 8.971 1.206 17.683 1.206 17.683a1.127 1.127 0 0 0 1.127 1.083h5.409c.57 0 1.05-.428 1.118-.995 0 0 2.271-18.648 7.138-31.49.026-.064.6-1.247 1.237-2.78a44.605 44.605 0 0 0 1.989-5.859c1.19-4.587 1.78-10.276-.8-15.069a.939.939 0 0 0-.019-.025c-2.271-3.951-2.875-13.574-.664-23.273 2.21-9.7 7.095-19.513 14.946-24.567h.004c7.571-4.938 14.93-6.34 24.386-5.29 9.455 1.05 20.959 4.629 36.384 9.695 3.369 1.123 6.756 2.25 10.593 3.38 16.889 5.592 28.863 3.883 37.163 1.536 4.15-1.173 7.403-2.491 9.797-3.098 1.197-.303 2.164-.42 2.887-.33.72.088 1.204.327 1.712.898h.004c11.368 13.352 9.863 30.02 9.863 30.02l-.004.056s-.216 5.467-2.654 13.225c-1.177 3.67.239 7.831 2.086 11.699 1.847 3.868 4.24 7.52 5.418 9.876.054.107.125.205.21.29-.02-.02-.042-.065.015.049.056.114.19.384.435.63l-.215-.3c5.903 12.025 6.645 30.416 6.645 30.416a1.127 1.127 0 0 0 1.127 1.083h5.409c.604 0 1.1-.476 1.126-1.079 0 0 .393-9.327 1.374-18.546.49-4.61 1.132-9.198 1.923-12.516.395-1.66.842-3.006 1.259-3.812.208-.402.414-.66.519-.752.02-.02.012 0 .018-.02 3.68.781 7.266 2.299 10.453 4.29l.227-.795c.737-2.719 4.224-16.672 5.77-33.875 1.558-17.336 1.158-37.825-6.337-53.046-14.28-28.562-41.568-65.291-41.568-65.291a1.127 1.127 0 0 0-.981-.453zM207.193 300.017l-.295.67s-5.51 12.327-4.604 26.168c.002 1.082.225 2.196.225 2.905v.096l.013.088c.688 4.123 1.84 8.744 4.15 13.595l.01.02.005.02c6.013 12.027 18.92 23.606 44.27 23.606 25.57 0 38.262-11.593 44.27-23.836h.004c2.303-4.607 3.449-9.195 4.137-13.295.274-1.095.256-2.244.256-3.138 1.146-13.656-4.604-26.218-4.604-26.218l-.3-.66H283.5l.409 1.435s1.28 4.587.726 9.018c-.277 2.215-1 4.333-2.456 5.87-1.456 1.54-3.67 2.606-7.328 2.606-3.707 0-6.024-.874-7.504-2.073-1.48-1.198-2.196-2.772-2.513-4.445-.633-3.345.498-6.87.498-6.87l.519-1.567-14.884.757-14.911-.757.55 1.58s1.183 3.523.576 6.862c-.303 1.669-1.011 3.238-2.5 4.436-1.488 1.198-3.834 2.077-7.6 2.077-3.658 0-5.872-1.067-7.328-2.605-1.456-1.538-2.179-3.656-2.456-5.871-.553-4.43.727-9.018.727-9.018l.409-1.435h-11.24z" fill="#2f343b"/><path d="M251.641 394.883l-.45-.45-.451.45h.901z" fill="#f9dfa9"/><path d="M208.152 372.349L205.9 388.8l-1.127 7.433 14.422 35.605 10.59-12.393c6.534 2.929 13.97 4.282 21.406 4.282 7.436 0 14.872-1.353 21.407-4.282l-20.954-24.563h-.902l.45-.449c-23.66-.676-31.772-7.212-43.039-22.084zm86.305 0c-4.957 6.31-9.24 11.267-14.422 14.647-6.986 4.732-15.325 6.988-28.845 7.213l.453.449 20.954 24.562 10.593 12.394 14.647-35.38-1.127-7.434-2.253-16.451z" fill="#f9f9f9"/><path d="M250.74 394.883l-20.956 24.562c6.535 2.929 13.97 4.281 21.407 4.281 7.436 0 14.872-1.352 21.406-4.281l-20.956-24.562h-.901z" fill="#e5ebec"/><path d="M296.71 388.798l1.126 7.434-14.644 35.382-10.593-12.393c-6.535 2.93-13.972 4.282-21.408 4.282v.226c-7.436 0-14.873-1.357-21.408-4.286l-10.589 12.397-14.648-35.379 1.13-7.437c-12.394 2.704-70.982 16.452-100.05 37.182-4.282 3.155-7.89 6.31-10.82 9.69-5.407 6.534-10.814 35.147-15.096 62.863.553.419 1.115.826 1.67 1.24h338.21c.954-.709 1.911-1.415 2.857-2.136-4.282-27.49-9.688-55.885-14.871-62.42-21.407-25.688-96.669-43.49-110.865-46.645z" fill="#1bbb9c"/><path d="M296.706 388.798l1.13 7.437-14.648 35.379-10.59-12.393c-6.534 2.93-13.971 4.282-21.407 4.282V500h168.394c.955-.71 1.914-1.415 2.86-2.137-4.28-27.49-9.691-55.885-14.874-62.42-21.407-25.688-96.668-43.49-110.865-46.645z" fill="#1ab294"/></svg>