<?xml version="1.0" encoding="UTF-8" standalone="no"?>
<!-- Created with Inkscape (http://www.inkscape.org/) -->

<svg
   xmlns:dc="http://purl.org/dc/elements/1.1/"
   xmlns:cc="http://creativecommons.org/ns#"
   xmlns:rdf="http://www.w3.org/1999/02/22-rdf-syntax-ns#"
   xmlns:svg="http://www.w3.org/2000/svg"
   xmlns="http://www.w3.org/2000/svg"
   xmlns:sodipodi="http://sodipodi.sourceforge.net/DTD/sodipodi-0.dtd"
   xmlns:inkscape="http://www.inkscape.org/namespaces/inkscape"
   width="512"
   height="512"
   id="svg2"
   version="1.1"
   inkscape:version="0.91 r13725"
   sodipodi:docname="favicon.svg"
   inkscape:export-xdpi="90"
   inkscape:export-ydpi="90">
  <title
     id="title3755">Creasi.co Favicon</title>
  <defs
     id="defs4">
    <filter
       id="filter15010"
       style="color-interpolation-filters:sRGB;"
       inkscape:label="Drop Shadow">
      <feFlood
         id="feFlood15012"
         flood-opacity="0.3"
         flood-color="rgb(0,0,0)"
         result="flood" />
      <feComposite
         id="feComposite15014"
         in2="SourceGraphic"
         in="flood"
         operator="in"
         result="composite1" />
      <feGaussianBlur
         id="feGaussianBlur15016"
         in="composite"
         stdDeviation="10"
         result="blur" />
      <feOffset
         id="feOffset15018"
         dx="4"
         dy="8"
         result="offset" />
      <feComposite
         id="feComposite15020"
         in2="offset"
         in="SourceGraphic"
         operator="over"
         result="composite2" />
    </filter>
  </defs>
  <sodipodi:namedview
     id="base"
     pagecolor="#f1f1f1"
     bordercolor="#868686"
     borderopacity="1"
     inkscape:pageopacity="0"
     inkscape:pageshadow="2"
     inkscape:zoom="1"
     inkscape:cx="213.5"
     inkscape:cy="270"
     inkscape:document-units="px"
     inkscape:current-layer="layer1"
     showgrid="false"
     inkscape:showpageshadow="false"
     inkscape:window-width="1337"
     inkscape:window-height="703"
     inkscape:window-x="29"
     inkscape:window-y="0"
     inkscape:window-maximized="0" />
  <metadata
     id="metadata7">
    <rdf:RDF>
      <cc:Work
         rdf:about="">
        <dc:format>image/svg+xml</dc:format>
        <dc:type
           rdf:resource="http://purl.org/dc/dcmitype/StillImage" />
        <dc:title>Creasi.co Favicon</dc:title>
        <dc:creator>
          <cc:Agent>
            <dc:title>Fery Wardiyanto</dc:title>
          </cc:Agent>
        </dc:creator>
        <dc:rights>
          <cc:Agent>
            <dc:title>Fery Wardiyanto</dc:title>
          </cc:Agent>
        </dc:rights>
        <dc:publisher>
          <cc:Agent>
            <dc:title>Fery Wardiyanto</dc:title>
          </cc:Agent>
        </dc:publisher>
        <cc:license
           rdf:resource="http://creativecommons.org/licenses/by/3.0/" />
      </cc:Work>
      <cc:License
         rdf:about="http://creativecommons.org/licenses/by/3.0/">
        <cc:permits
           rdf:resource="http://creativecommons.org/ns#Reproduction" />
        <cc:permits
           rdf:resource="http://creativecommons.org/ns#Distribution" />
        <cc:requires
           rdf:resource="http://creativecommons.org/ns#Notice" />
        <cc:requires
           rdf:resource="http://creativecommons.org/ns#Attribution" />
        <cc:permits
           rdf:resource="http://creativecommons.org/ns#DerivativeWorks" />
      </cc:License>
    </rdf:RDF>
  </metadata>
  <g
     inkscape:label="Layer 1"
     inkscape:groupmode="layer"
     id="layer1"
     transform="translate(0,-540.36218)">
    <path
       style="fill:#589d8d;fill-opacity:1;stroke:none"
       d="m -3e-6,796.36181 0,-256.00001 256.000003,0 256.00001,0 0,256.00001 0,255.99999 -256.00001,0 -256.000003,0 0,-255.99999 z"
       id="Backdrop"
       inkscape:connector-curvature="0"
       inkscape:label="#backdrop" />
    <path
       sodipodi:nodetypes="sccssccssccssccssccssccss"
       inkscape:connector-curvature="0"
       style="font-style:italic;font-variant:normal;font-weight:bold;font-stretch:normal;font-size:180.32180786px;line-height:125%;font-family:Geogrotesque;-inkscape-font-specification:'Geogrotesque Bold Italic';letter-spacing:-9px;word-spacing:0px;fill:#e4edeb;fill-opacity:1;stroke:none;filter:url(#filter15010)"
       d="m 273.19083,644.3618 c -88.21528,0 -115.21673,36.61818 -119.78746,73.68818 l -19.13409,149.15545 c -0.45727,4.74182 -0.99655,8.60819 -0.99655,11.62545 0,34.05274 27.93364,65.53092 105.63627,65.53092 88.21528,0 115.117,-36.61636 119.68773,-73.68728 l 3.28873,-26.34363 c 0.91418,-7.32818 -0.54909,-12.93727 -11.06191,-12.93727 l -47.038,0 c -9.59854,0 -13.77664,3.88546 -15.14782,12.93727 l -1.794,13.7809 c -2.74237,19.8291 -18.66191,28.03091 -41.05854,28.03091 -20.56837,0 -35.67709,-6.81363 -35.67709,-23.62454 0,-1.29272 0.43909,-4.80091 0.89727,-8.24909 L 227.44873,730.6118 c 2.74246,-19.82819 19.16027,-28.03091 41.55691,-28.03091 21.02536,0 35.27845,6.8891 35.27845,22.40636 0,1.72637 -0.4409,5.57 -0.89727,8.15637 l -0.89727,4.78091 c -1.371,7.7591 1.80354,12.84363 11.85918,12.84363 l 47.038,0 c 9.59854,0 12.78,-3.79181 14.15127,-12.84363 l 2.292,-16.87455 c 0.45727,-4.74182 0.89728,-8.60818 0.89728,-11.62545 0,-34.05274 -28.291,-65.06273 -105.53655,-65.06273 z"
       id="Creasico-initial"
       inkscape:label="#initial" />
  </g>
</svg>
