<svg xmlns="http://www.w3.org/2000/svg" width="512" height="512"><title>Creasi.co Favicon</title><defs><filter id="a" color-interpolation-filters="sRGB"><feFlood flood-opacity=".3" flood-color="#000" result="flood"/><feComposite in2="SourceGraphic" in="flood" operator="in" result="composite1"/><feGaussianBlur in="composite" stdDeviation="10" result="blur"/><feOffset dx="4" dy="8" result="offset"/><feComposite in2="offset" in="SourceGraphic" result="composite2"/></filter></defs><path d="M0 256V0h512v512H0V256z" fill="#589d8d"/><path style="line-height:125%;-inkscape-font-specification:'Geogrotesque Bold Italic'" d="M273.19 644.362c-88.214 0-115.216 36.618-119.787 73.688L134.27 867.205c-.457 4.742-.996 8.609-.996 11.626 0 34.053 27.933 65.53 105.636 65.53 88.215 0 115.117-36.616 119.688-73.686l3.288-26.344c.915-7.328-.549-12.937-11.061-12.937h-47.038c-9.599 0-13.777 3.885-15.148 12.937l-1.794 13.78c-2.743 19.83-18.662 28.032-41.059 28.032-20.568 0-35.677-6.814-35.677-23.625 0-1.293.44-4.8.897-8.249l16.444-123.657c2.742-19.828 19.16-28.031 41.557-28.031 21.025 0 35.278 6.889 35.278 22.406 0 1.727-.44 5.57-.897 8.157l-.897 4.78c-1.371 7.76 1.803 12.844 11.859 12.844h47.038c9.598 0 12.78-3.792 14.151-12.843l2.292-16.875c.457-4.742.897-8.608.897-11.625 0-34.053-28.29-65.063-105.536-65.063z" font-style="italic" font-weight="700" font-size="180.322" font-family="Geogrotesque" letter-spacing="-9" word-spacing="0" fill="#e4edeb" filter="url(#a)" transform="translate(0 -540.362)"/></svg>