<?xml version="1.0" encoding="UTF-8" standalone="no"?>
<!-- Created with Inkscape (http://www.inkscape.org/) -->

<svg
   xmlns:dc="http://purl.org/dc/elements/1.1/"
   xmlns:cc="http://creativecommons.org/ns#"
   xmlns:rdf="http://www.w3.org/1999/02/22-rdf-syntax-ns#"
   xmlns:svg="http://www.w3.org/2000/svg"
   xmlns="http://www.w3.org/2000/svg"
   xmlns:sodipodi="http://sodipodi.sourceforge.net/DTD/sodipodi-0.dtd"
   xmlns:inkscape="http://www.inkscape.org/namespaces/inkscape"
   width="500"
   height="500"
   viewBox="0 0 499.99995 500.00001"
   id="svg5269"
   version="1.1"
   inkscape:version="0.91 r13725"
   sodipodi:docname="avatar.svg">
  <title
     id="title5902">User Avatar</title>
  <defs
     id="defs5271" />
  <sodipodi:namedview
     id="base"
     pagecolor="#56626b"
     bordercolor="#a7a7a7"
     borderopacity="1"
     inkscape:pageopacity="1"
     inkscape:pageshadow="2"
     inkscape:zoom="1.4142136"
     inkscape:cx="309.21111"
     inkscape:cy="198.2674"
     inkscape:document-units="px"
     inkscape:current-layer="layer1"
     showgrid="false"
     units="px"
     inkscape:window-width="1366"
     inkscape:window-height="703"
     inkscape:window-x="0"
     inkscape:window-y="0"
     inkscape:window-maximized="1" />
  <metadata
     id="metadata5274">
    <rdf:RDF>
      <cc:Work
         rdf:about="">
        <dc:format>image/svg+xml</dc:format>
        <dc:type
           rdf:resource="http://purl.org/dc/dcmitype/StillImage" />
        <dc:title>User Avatar</dc:title>
        <dc:creator>
          <cc:Agent>
            <dc:title>Fery Wardiyanto</dc:title>
          </cc:Agent>
        </dc:creator>
        <dc:rights>
          <cc:Agent>
            <dc:title>Fery Wardiyanto</dc:title>
          </cc:Agent>
        </dc:rights>
        <dc:publisher>
          <cc:Agent>
            <dc:title>Fery Wardiyanto</dc:title>
          </cc:Agent>
        </dc:publisher>
        <cc:license
           rdf:resource="http://creativecommons.org/licenses/by/3.0/" />
      </cc:Work>
      <cc:License
         rdf:about="http://creativecommons.org/licenses/by/3.0/">
        <cc:permits
           rdf:resource="http://creativecommons.org/ns#Reproduction" />
        <cc:permits
           rdf:resource="http://creativecommons.org/ns#Distribution" />
        <cc:requires
           rdf:resource="http://creativecommons.org/ns#Notice" />
        <cc:requires
           rdf:resource="http://creativecommons.org/ns#Attribution" />
        <cc:permits
           rdf:resource="http://creativecommons.org/ns#DerivativeWorks" />
      </cc:License>
    </rdf:RDF>
  </metadata>
  <g
     inkscape:label="Layer 1"
     inkscape:groupmode="layer"
     id="layer1"
     transform="translate(0,-552.36213)">
    <rect
       style="opacity:1;fill:#56626b;fill-opacity:1;stroke:none;stroke-width:5;stroke-linecap:round;stroke-linejoin:round;stroke-miterlimit:3.9000001;stroke-dasharray:none;stroke-dashoffset:0;stroke-opacity:1"
       id="rect5200"
       width="500"
       height="500"
       x="-2.9439032e-05"
       y="552.36212" />
    <path
       inkscape:connector-curvature="0"
       style="fill:#f9dfa9"
       d="m 294.22823,895.193 c -5.62456,11.92412 -17.99002,23.17176 -43.14807,23.20686 -24.93612,-0.0333 -37.30318,-11.28274 -42.928,-22.98235 l 0,35.38019 c 0,3.38 0.67511,6.30843 1.35111,9.23785 2.02802,6.76 5.85959,12.16627 11.04228,16.22235 8.11206,6.53471 19.3779,9.91549 30.64465,9.91549 11.26672,0 22.53258,-3.38078 30.64462,-9.91549 5.18271,-4.05608 9.01428,-9.46235 11.0423,-16.22235 0.676,-2.25334 1.12578,-4.73392 1.35111,-7.43785 -0.0739,-0.0196 -0.14627,-0.0314 -0.22015,-0.0431 0.0118,-0.64922 0.22015,-1.09647 0.22015,-1.75608 l 0,-35.60471 z"
       id="path661" />
    <path
       style="fill:#ffe8b9"
       d="m 314.96167,594.82008 c -4.73202,45.06704 -75.26091,-0.67249 -127.53855,23.889 -13.06941,6.08412 -29.96951,20.95353 -39.43357,37.85353 -16.9001,30.42019 -4.05779,89.65804 -4.05779,89.65804 l 0.13314,0.0333 c -4.15139,4.30137 -6.44419,12.12137 -6.44419,22.07274 0,19.60412 9.69027,43.71589 22.30902,43.71589 0.82966,0 1.66131,-0.0196 2.491,-0.19412 8.78903,26.35216 23.20603,50.90157 41.00035,67.56961 l 0,-0.22451 c 0,0.90137 0.22443,2.02549 0.22443,2.92666 0.676,4.05608 1.80443,8.56373 4.05778,13.29569 0.14,0.28 0.3014,0.55706 0.44891,0.83627 l 0,34.54392 c 0,3.38 0.67513,6.30844 1.35113,9.23785 2.028,6.76 5.85957,12.16627 11.04228,16.22235 8.11204,6.53471 19.3779,9.91569 30.64462,9.91569 11.26675,0 22.53261,-3.38098 30.64465,-9.91569 5.18271,-4.05608 9.01428,-9.46235 11.04228,-16.22235 0.676,-2.25334 1.1258,-4.73373 1.35113,-7.43785 -0.0739,-0.0196 -0.14627,-0.0314 -0.22015,-0.0431 0.0118,-0.64902 0.22015,-1.09647 0.22015,-1.75588 l 0,-35.60471 0,0 c 2.25336,-4.50667 3.38179,-9.0151 4.05779,-13.07118 0.22533,-0.90137 0.22443,-2.02529 0.22443,-2.92666 0.0296,-0.34843 0.0367,-0.69177 0.0573,-1.03863 -0.0157,0.4951 -0.0239,0.98823 -0.0573,1.48745 17.80143,-16.67471 32.35751,-41.65863 41.14557,-68.02294 l 0.10255,0.0275 c 0.82286,0.17059 1.64451,0.17059 2.4676,0.17059 12.61875,0 22.30902,-24.33706 22.30902,-43.71569 0,-10.59078 -3.16947,-17.57451 -7.67615,-21.85568 l 0.0137,-2e-4 c 1.35202,-4.95725 14.19785,-56.56078 -0.4489,-86.3049 -14.19608,-28.39216 -41.46247,-65.12259 -41.46247,-65.12259 z"
       id="path665"
       inkscape:connector-curvature="0"
       sodipodi:nodetypes="cccccssccccccsccscsccsccccccccssccccc" />
    <path
       style="opacity:1;fill:#eace95;fill-opacity:1;stroke:none;stroke-width:5;stroke-linecap:round;stroke-linejoin:round;stroke-miterlimit:3.9000001;stroke-dasharray:none;stroke-dashoffset:0;stroke-opacity:1"
       d="m 314.96167,594.82008 c -2.91418,27.7541 -30.804,21.07782 -63.99593,17.58233 l 0,353.76216 c 0.0749,3.9e-4 0.14961,-48.66432 0.22444,-48.66432 16.31978,5.11157 23.32307,11.74432 43.03803,15.09745 -0.0739,-0.0196 -0.14627,-0.0314 -0.22015,-0.0431 0.0118,-0.64922 0.22015,-1.09647 0.22015,-1.75608 l 0,-35.60471 c 2.25336,-4.50666 3.38179,-9.0151 4.05779,-13.07117 0.22533,-0.90118 0.22443,-2.0253 0.22443,-2.92667 0.0296,-0.34824 0.0367,-0.69177 0.0573,-1.03863 -0.0157,0.4951 -0.0239,0.98824 -0.0573,1.48765 17.80145,-16.6749 32.35755,-41.65882 41.14559,-68.02294 l 0.10117,0.0274 c 0.82287,0.17255 1.64591,0.17255 2.469,0.17255 12.61875,0 22.30902,-24.33706 22.30902,-43.71588 0,-10.59079 -3.16878,-17.57432 -7.67547,-21.85569 l 0.0137,0 c 1.352,-4.95745 14.19784,-56.56078 -0.44892,-86.3049 C 342.22847,631.55339 314.9621,594.8229 314.9621,594.8229 Z"
       id="rect5123"
       inkscape:connector-curvature="0"
       sodipodi:nodetypes="ccccccscccccccsscccc" />
    <path
       inkscape:connector-curvature="0"
       style="fill:#2f343b;stroke:none;stroke-width:2.25334692;stroke-linecap:round;stroke-linejoin:round;stroke-opacity:1"
       d="m 314.88243,593.6978 c -0.54643,0.0378 -0.98654,0.46305 -1.04304,1.00787 -1.15059,10.95792 -6.00686,15.99106 -13.77535,18.32596 -7.76845,2.3351 -18.57098,1.66666 -30.92188,0.30372 -24.70185,-2.72588 -55.63981,-8.12549 -82.19877,4.35275 -13.3689,6.22451 -30.33466,21.17255 -39.93968,38.32451 -8.66032,15.58843 -9.61128,38.20804 -8.50726,56.97608 1.104,18.76823 4.91153,34.00835 4.91153,34.00835 2.67256,-2.35931 6.44594,-3.70137 10.01688,-4.31424 0.10334,0.11373 0.475,0.51628 0.84061,1.47432 0.40935,1.07274 0.80463,2.57921 1.16188,4.33941 0.71449,3.52078 1.28626,8.07039 1.72081,12.55627 0.86913,8.97177 1.2059,17.68353 1.2059,17.68353 0.0237,0.605 0.52121,1.08315 1.12667,1.08275 l 5.40892,0 c 0.57078,-5.8e-4 1.05098,-0.42786 1.11788,-0.99471 0,0 2.27171,-18.64823 7.13851,-31.48961 0.0261,-0.0647 0.59949,-1.24784 1.2367,-2.78156 0.63726,-1.53373 1.39406,-3.56393 1.98928,-5.85785 1.19045,-4.58745 1.77984,-10.27627 -0.80096,-15.06921 -0.006,-0.009 -0.0116,-0.0171 -0.0176,-0.0255 -2.27161,-3.95059 -2.87521,-13.57353 -0.66455,-23.27275 2.21067,-9.69941 7.09543,-19.51235 14.94602,-24.56686 l 0.004,0 c 7.57142,-4.93784 14.931,-6.34079 24.3863,-5.2902 9.45437,1.05059 20.95833,4.62902 36.38364,9.69569 3.36865,1.12294 6.75577,2.25039 10.59338,3.38 16.88866,5.59157 28.86253,3.88294 37.16262,1.53588 4.15002,-1.17333 7.40298,-2.49157 9.79677,-3.09823 1.1969,-0.30353 2.16465,-0.41961 2.8871,-0.3302 0.721,0.0882 1.20388,0.32745 1.71202,0.89784 l 0.004,0 c 11.36849,13.35275 9.86278,30.01981 9.86278,30.01981 -0.002,0.0189 -0.003,0.0379 -0.004,0.0569 0,0 -0.21541,5.46627 -2.65382,13.2251 -1.17714,3.66882 0.23913,7.83098 2.0861,11.69804 1.84764,3.86862 4.23947,7.5196 5.4177,9.87607 0.0545,0.10748 0.12583,0.20552 0.21135,0.2904 -0.0202,-0.0196 -0.0433,-0.0647 0.0137,0.049 0.0563,0.11372 0.1902,0.38392 0.43571,0.62941 l -0.21565,-0.29941 c 5.90335,12.02549 6.64561,30.41588 6.64561,30.41588 0.0237,0.605 0.52122,1.08315 1.12668,1.08274 l 5.4089,0 c 0.60386,4.9e-4 1.10076,-0.47513 1.12667,-1.07843 0,0 0.39237,-9.32706 1.37316,-18.54608 0.49037,-4.60941 1.1321,-9.19784 1.92325,-12.51647 0.39557,-1.65941 0.84169,-3.00588 1.25869,-3.81137 0.20843,-0.40274 0.41449,-0.66118 0.51933,-0.75255 0.0202,-0.0196 0.0118,0 0.0177,-0.0196 3.67986,0.78097 7.26654,2.29882 10.45304,4.28984 l 0.22782,-0.79513 c 0.73659,-2.71843 4.22375,-16.67176 5.76983,-33.8751 1.55798,-17.33608 1.15754,-37.8251 -6.33755,-53.04608 -14.27996,-28.56156 -41.56773,-65.2908 -41.56773,-65.2908 -0.22857,-0.30842 -0.59844,-0.47926 -0.98145,-0.45331 z"
       id="path685"
       sodipodi:nodetypes="cccsccsccccscccccccccscccccccccccccccccccccccsccccccscccc" />
    <path
       inkscape:connector-curvature="0"
       style="fill:#2f343b;stroke:none;stroke-width:2.25334692;stroke-opacity:1"
       d="m 207.19273,852.37947 -0.29489,0.66882 c 0,0 -5.50945,12.32785 -4.60351,26.16883 0.002,1.08156 0.22443,2.19647 0.22443,2.9047 l 0,0.0961 0.0137,0.0882 c 0.68714,4.12274 1.84016,8.74372 4.15022,13.5949 l 0.01,0.0196 0.004,0.0196 c 6.01373,12.02745 18.91984,23.60726 44.27033,23.60726 25.56912,0 38.26232,-11.59314 44.27034,-23.83608 l 0.004,0 c 2.30294,-4.60765 3.44847,-9.19569 4.137,-13.29569 0.27351,-1.09411 0.25588,-2.24333 0.25525,-3.13784 1.14665,-13.65608 -4.60351,-26.21725 -4.60351,-26.21725 l -0.29927,-0.6602 -11.23153,0 0.40929,1.43471 c 0,0 1.28002,4.58725 0.72618,9.01784 -0.2769,2.21529 -1.00008,4.33294 -2.4558,5.87098 -1.45573,1.53823 -3.66936,2.60549 -7.32777,2.60549 -3.70741,0 -6.02382,-0.87431 -7.50382,-2.07294 -1.48,-1.19843 -2.19618,-2.77216 -2.513,-4.4451 -0.63365,-3.34549 0.49731,-6.87 0.49731,-6.87 l 0.51932,-1.56686 -14.88442,0.75706 -14.91082,-0.75706 0.55014,1.58 c 0,0 1.18357,3.52274 0.57655,6.86137 -0.30351,1.66922 -1.01153,3.23843 -2.49981,4.43627 -1.48829,1.19785 -3.83433,2.07726 -7.60064,2.07726 -3.65844,0 -5.87204,-1.06726 -7.32779,-2.60549 -1.45572,-1.53804 -2.17888,-3.65569 -2.4558,-5.87098 -0.55383,-4.43059 0.72619,-9.01784 0.72619,-9.01784 l 0.4093,-1.43471 -11.24034,0 z"
       id="path713" />
    <path
       style="fill:#f9dfa9"
       inkscape:connector-curvature="0"
       id="path5176"
       d="m 251.64135,947.24535 -0.45066,-0.45078 -0.45067,0.45078 c 0.22533,0 0.676,0 0.90133,0 z" />
    <path
       style="fill:#f9f9f9"
       d="m 208.15216,924.71104 -2.25336,16.45117 -1.12668,7.43334 14.42231,35.6047 10.58896,-12.39353 c 6.53471,2.92941 13.97077,4.28236 21.40681,4.28236 7.43603,0 14.87207,-1.35295 21.40678,-4.28236 l -20.95349,-24.56235 -0.90222,0 0.44893,-0.44882 c -23.66014,-0.67608 -31.77132,-7.21255 -43.03804,-22.08451 z m 86.30494,0 c -4.95738,6.30921 -9.23961,11.26666 -14.42232,14.64666 -6.98537,4.73196 -15.32451,6.98804 -28.84458,7.21334 l 0.45329,0.44902 20.95349,24.56235 10.59337,12.39333 14.64677,-35.38019 -1.12669,-7.43334 -2.25333,-16.45117 z"
       id="path5182"
       inkscape:connector-curvature="0" />
    <path
       style="fill:#e5ebec"
       inkscape:connector-curvature="0"
       id="path5178"
       d="m 250.74002,947.24535 -20.95612,24.56137 c 6.53471,2.92941 13.97075,4.28138 21.40679,4.28138 7.43603,0 14.87209,-1.35197 21.4068,-4.28138 l -20.95614,-24.56137 c -0.22533,0 -0.676,0 -0.90133,0 z" />
    <path
       inkscape:connector-curvature="0"
       style="fill:#1bbb9c"
       d="m 296.71029,941.16025 1.12591,7.43353 -14.64461,35.38216 -10.59283,-12.39275 c -6.5347,2.92922 -13.97174,4.28157 -21.40778,4.28157 l 0,0.22588 c -7.43604,0 -14.87308,-1.35607 -21.40778,-4.28529 l -10.589,12.39647 -14.64844,-35.37843 1.12975,-7.43706 c -12.39341,2.70392 -70.98161,16.45137 -100.04978,37.18216 -4.28138,3.1547 -7.889435,6.30902 -10.818788,9.68902 -5.40804,6.5347 -10.815157,35.14769 -15.09651,62.86369 0.552196,0.4189 1.114392,0.8261 1.669725,1.2408 l 338.208493,0 c 0.95429,-0.7094 1.91184,-1.4157 2.85694,-2.1368 -4.28136,-27.4908 -9.68789,-55.88495 -14.87057,-62.41965 -21.40681,-25.68824 -96.66863,-43.49059 -110.86473,-46.6453 z"
       id="path5180" />
    <path
       inkscape:connector-curvature="0"
       style="fill:#1ab294"
       d="m 296.70645,941.16025 1.12975,7.43726 -14.64844,35.37843 -10.589,-12.39275 c -6.5347,2.92922 -13.97174,4.28157 -21.40778,4.28157 l 0,76.49724 168.39384,0 c 0.95551,-0.7104 1.91447,-1.4149 2.86077,-2.1368 -4.28138,-27.4908 -9.69169,-55.88495 -14.8744,-62.41965 -21.40678,-25.68824 -96.66866,-43.49059 -110.86474,-46.6453 z"
       id="path5184" />
  </g>
</svg>
