<svg xmlns="http://www.w3.org/2000/svg" width="512" height="512"><title>Creasi.co Logo</title><defs><filter id="a" color-interpolation-filters="sRGB"><feFlood flood-opacity=".3" flood-color="#000" result="flood"/><feComposite in2="SourceGraphic" in="flood" operator="in" result="composite1"/><feGaussianBlur in="composite" stdDeviation="2" result="blur"/><feOffset dx="2" dy="2" result="offset"/><feComposite in2="offset" in="SourceGraphic" result="composite2"/></filter></defs><path d="M0 256V0h512v512H0V256z" fill="#589d8d"/><g font-style="italic" font-weight="700" font-size="180.322" font-family="Geogrotesque" letter-spacing="-9" word-spacing="0"><path style="line-height:125%;-inkscape-font-specification:'Geogrotesque Bold Italic'" d="M163.875 184c-27.662 0-36.13 12.206-37.563 24.563l-6 49.718c-.143 1.58-.312 2.87-.312 3.875 0 11.351 8.76 21.844 33.125 21.844 27.662 0 36.098-12.206 37.531-24.563l1.031-8.78c.287-2.443-.172-4.313-3.468-4.313h-14.75c-3.01 0-4.32 1.295-4.75 4.312l-.563 4.594c-.86 6.61-5.852 9.344-12.875 9.344-6.45 0-11.187-2.272-11.187-7.875 0-.431.138-1.6.281-2.75l5.156-41.219c.86-6.61 6.008-9.344 13.031-9.344 6.594 0 11.063 2.296 11.063 7.469 0 .575-.138 1.857-.281 2.719l-.281 1.594c-.43 2.586.565 4.28 3.718 4.28h14.75c3.01 0 4.008-1.263 4.438-4.28l.719-5.625c.143-1.581.28-2.87.28-3.875 0-11.351-8.87-21.688-33.093-21.688zm273.375 0c-26.802 0-34.66 12.206-36.094 24.563l-.875 7.187c-.143 1.437-.281 2.732-.281 3.594 0 8.19 5.454 14.532 11.188 16.687l19.625 7.719c4.443 1.724 11.156 4.34 11.156 8.938 0 .143.05.712-.094 1.718l-.312 1.844c-1.004 6.61-6.446 9.07-13.47 9.063l-31-.032-8.937-75.812c-.44-2.872-1.74-4.313-4.75-4.313h-15.468c-3.01 0-4.586 1.295-5.875 4.313l-30.5 74h-33.844l2.719-21.563h27.25c3.01 0 4.288-1.139 4.718-4.156l1.282-10.5c.43-3.017-.71-4.031-3.72-4.031h-27.25l2.313-18.688h29.5c3.01 0 4.32-1.139 4.75-4.156l1.438-11.219c.43-3.017-.865-4-3.875-4h-49.031c-3.01 0-4.29 1.295-4.72 4.313l-10.905 89.062c-.43 3.018.708 4.313 3.718 4.313h64.813c3.01 0 4.434-2.926 5.437-5.656l26.5-68.907 5.719 68.907c.71 3.832 2.688 6.84 7.688 6.812h40.593c27.233 0 36.41-12.206 37.844-24.562l1-8.938c.143-1.58.281-2.557.281-3.562 0-8.909-5.996-16.102-15.312-19.407l-23.094-8.187c-1.433-.575-3.875-1.577-3.875-5.313v-.875l.156-1.437c.86-6.61 4.859-9.031 12.157-9.031 7.297 0 13.83 3.226 10.343 8.187v.844l-.156 2.156c-.287 3.305.714 4.313 3.438 4.313h14.937c3.01 0 4.432-1.296 4.719-4.313l.562-5.313c.144-1.724.156-2.3.156-2.875 0-11.063-8.483-21.687-32.562-21.687zm-226.906 1.156c-3.01 0-4.289 1.295-4.719 4.313l-10.906 89.062c-.43 3.449 1.282 4.313 3.719 4.313h15.5c3.01 0 4.15-1.295 4.437-4.313l3.875-31.75h10.906l8.719 31.75c.573 2.3 1.17 4.313 3.75 4.313h15.313c2.866 0 5.154-1.583 4.437-4.313l-9.594-34.906c11.61-4.167 16.197-12.21 17.344-20.688l1.313-11.218c.143-1.15.25-2.72.25-3.438 0-12.356-10.148-23.125-34.657-23.125h-29.687zm275.844 0c-3.01 0-4.32 1.295-4.75 4.313l-7.844 63.969c-.43 3.017.709 4.343 3.719 4.343h15.468c3.01 0 4.039-1.326 4.469-4.344l7.844-63.968c.43-3.018-.428-4.313-3.438-4.313h-15.469zm-258.625 19.375h11.875c7.596 0 11.468 3.022 11.468 8.625 0 .431.019 1.288-.125 2.438l-.437 3.031c-1.004 6.61-6.735 8.75-14.188 8.75h-11.5l2.906-22.844z" transform="matrix(.80381 0 0 .8 -50.457 74.8)" fill="#d2e6e1" filter="url(#a)"/><path transform="matrix(.80381 0 0 .8 -50.457 -152.689)" style="line-height:125%;-inkscape-font-specification:'Geogrotesque Bold Italic'" d="M538.427 494.209c-22.36 0-31.54 8.785-33.26 22.435l-3.576 29.308c-.143 1.724-.15 2.289-.15 2.863 0 11.926 9.595 19.547 29.087 19.547 22.79 0 31.964-8.76 33.11-22.41l.299-3.61c.143-2.3-.306-4.16-3.602-4.16h-13.612c-3.01 0-4.283 1.142-4.57 4.16l-.15 1.742c-.572 4.742-3.294 6.325-9.314 6.325-5.446 0-8.023-1.294-8.023-5.03 0-.575.136-1.58.423-3.735l2.856-23.282c.573-4.741 3.295-6.175 9.315-6.175 5.446 0 7.898 1.145 7.898 4.88v2.017c0 2.587.854 3.86 3.577 3.86h13.463c3.01 0 4.457-1.141 4.744-4.159l.15-1.867c.142-1.868.123-2.295.123-3.013 0-11.495-8.865-19.696-28.788-19.696zm68.282 0c-22.359 0-33.253 8.785-34.973 22.435l-3.577 29.308c-.143 1.293-.149 2.009-.149 2.44 0 12.213 11.313 19.97 30.95 19.97 22.645 0 33.128-8.76 34.848-22.41l3.577-29.308c.143-1.437.15-2.02.15-2.739 0-12.07-11.333-19.696-30.826-19.696zm-2.658 17.978c.354-.013.701 0 1.068 0 4.73 0 9.19.999 9.19 5.453v.872l-3.154 25.423c-.573 4.885-4.73 6.474-10.606 6.474-5.446 0-9.165-1.018-9.165-5.329v-1.145l3.13-25.423c.537-4.446 4.237-6.134 9.537-6.325zm-127.796 34.611c-3.01 0-4.432 1.29-4.72 4.308l-1.44 11.927c-.43 3.018.567 4.184 3.577 4.184h15.425c3.01 0 4.14-1.166 4.57-4.184l1.441-11.927c.43-3.017-.418-4.308-3.428-4.308h-15.425z" fill="#295e53" filter="url(#a)"/></g></svg>